# xmcd CD database file generated by OrangeCD 5.2
#
# Track frame offsets:
#	150
#	19786
#	37259
#	50703
#	62849
#
# Disc length: 1033 seconds
#
# Revision: 0
# Processed by: cddbd v1.5.1PL0 Copyright (c) Steve Scherf et al.
# Submitted via: OrangeCD 5.2
#
DISCID=45040705
DTITLE=Scooter Lee - International Line Dance Favourites
DYEAR=1998
DGENRE=Country
TTITLE0=Old Friend
TTITLE1=Can't Help It
TTITLE2=Don't Walk Away With My Heart
TTITLE3=Moving On Up
TTITLE4=Honey Hush
EXTD=
EXTT0=
EXTT1=
EXTT2=
EXTT3=
EXTT4=
PLAYORDER=
